<mxfile host="app.diagrams.net" agent="Mozilla/5.0 (Macintosh; Intel Mac OS X 10_15_7) AppleWebKit/537.36 (KHTML, like Gecko) Chrome/132.0.0.0 Safari/537.36" version="26.0.11">
  <diagram name="Page-1" id="8-16rZ2MMyHifuOb_MhH">
    <mxGraphModel dx="143" dy="1326" grid="1" gridSize="10" guides="1" tooltips="1" connect="1" arrows="1" fold="1" page="1" pageScale="1" pageWidth="850" pageHeight="1100" math="0" shadow="0">
      <root>
        <mxCell id="0" />
        <mxCell id="1" parent="0" />
        <mxCell id="f_p331UzXkgbAsGsOddH-1" value="Client" style="html=1;whiteSpace=wrap;fillColor=#CCE5FF;" vertex="1" parent="1">
          <mxGeometry x="1670" y="510" width="110" height="50" as="geometry" />
        </mxCell>
        <mxCell id="f_p331UzXkgbAsGsOddH-2" value="API" style="html=1;whiteSpace=wrap;fillColor=#CCE5FF;" vertex="1" parent="1">
          <mxGeometry x="1859.67" y="510" width="110" height="50" as="geometry" />
        </mxCell>
        <mxCell id="f_p331UzXkgbAsGsOddH-3" value="Client" style="html=1;whiteSpace=wrap;fillColor=#CCE5FF;" vertex="1" parent="1">
          <mxGeometry x="1670" y="870" width="110" height="50" as="geometry" />
        </mxCell>
        <mxCell id="f_p331UzXkgbAsGsOddH-4" value="API" style="html=1;whiteSpace=wrap;fillColor=#CCE5FF;" vertex="1" parent="1">
          <mxGeometry x="1859.67" y="870" width="110" height="50" as="geometry" />
        </mxCell>
        <mxCell id="f_p331UzXkgbAsGsOddH-5" value="" style="endArrow=none;html=1;rounded=0;entryX=0.5;entryY=1;entryDx=0;entryDy=0;startArrow=none;opacity=50;dashed=1;" edge="1" parent="1" source="f_p331UzXkgbAsGsOddH-21" target="f_p331UzXkgbAsGsOddH-1">
          <mxGeometry width="50" height="50" relative="1" as="geometry">
            <mxPoint x="1725" y="600" as="sourcePoint" />
            <mxPoint x="2090" y="1200" as="targetPoint" />
          </mxGeometry>
        </mxCell>
        <mxCell id="f_p331UzXkgbAsGsOddH-8" value="" style="endArrow=none;html=1;rounded=0;entryX=0.5;entryY=1;entryDx=0;entryDy=0;exitX=0.5;exitY=0;exitDx=0;exitDy=0;startArrow=none;opacity=50;dashed=1;" edge="1" parent="1" source="f_p331UzXkgbAsGsOddH-10" target="f_p331UzXkgbAsGsOddH-2">
          <mxGeometry width="50" height="50" relative="1" as="geometry">
            <mxPoint x="1764.67" y="780" as="sourcePoint" />
            <mxPoint x="1764.67" y="570" as="targetPoint" />
          </mxGeometry>
        </mxCell>
        <mxCell id="f_p331UzXkgbAsGsOddH-9" value="" style="endArrow=none;html=1;rounded=0;entryX=0.5;entryY=1;entryDx=0;entryDy=0;exitX=0.5;exitY=0;exitDx=0;exitDy=0;startArrow=none;opacity=50;dashed=1;" edge="1" parent="1" source="f_p331UzXkgbAsGsOddH-4" target="f_p331UzXkgbAsGsOddH-10">
          <mxGeometry width="50" height="50" relative="1" as="geometry">
            <mxPoint x="1914.67" y="860" as="sourcePoint" />
            <mxPoint x="1914.67" y="560" as="targetPoint" />
          </mxGeometry>
        </mxCell>
        <mxCell id="f_p331UzXkgbAsGsOddH-10" value="" style="html=1;points=[];perimeter=orthogonalPerimeter;outlineConnect=0;targetShapes=umlLifeline;portConstraint=eastwest;newEdgeStyle={&quot;edgeStyle&quot;:&quot;elbowEdgeStyle&quot;,&quot;elbow&quot;:&quot;vertical&quot;,&quot;curved&quot;:0,&quot;rounded&quot;:0};fillColor=#E6E6E6;" vertex="1" parent="1">
          <mxGeometry x="1909.67" y="610" width="10" height="70" as="geometry" />
        </mxCell>
        <mxCell id="f_p331UzXkgbAsGsOddH-11" value="" style="endArrow=classic;html=1;rounded=0;" edge="1" parent="1" target="f_p331UzXkgbAsGsOddH-10">
          <mxGeometry width="50" height="50" relative="1" as="geometry">
            <mxPoint x="1730" y="610" as="sourcePoint" />
            <mxPoint x="2190" y="920" as="targetPoint" />
            <Array as="points">
              <mxPoint x="1800" y="610" />
            </Array>
          </mxGeometry>
        </mxCell>
        <mxCell id="f_p331UzXkgbAsGsOddH-12" value="POST /authenticate&lt;br&gt;username &amp;amp; password" style="edgeLabel;html=1;align=center;verticalAlign=bottom;resizable=0;points=[];" vertex="1" connectable="0" parent="f_p331UzXkgbAsGsOddH-11">
          <mxGeometry x="0.0867" y="-2" relative="1" as="geometry">
            <mxPoint x="-8" y="-5" as="offset" />
          </mxGeometry>
        </mxCell>
        <mxCell id="f_p331UzXkgbAsGsOddH-13" value="" style="endArrow=classic;html=1;rounded=0;dashed=1;" edge="1" parent="1" source="f_p331UzXkgbAsGsOddH-10" target="f_p331UzXkgbAsGsOddH-21">
          <mxGeometry width="50" height="50" relative="1" as="geometry">
            <mxPoint x="1800" y="850" as="sourcePoint" />
            <mxPoint x="1730" y="720" as="targetPoint" />
            <Array as="points">
              <mxPoint x="1810" y="680" />
            </Array>
          </mxGeometry>
        </mxCell>
        <mxCell id="f_p331UzXkgbAsGsOddH-14" value="HTTP 200&lt;br&gt;access_token: &amp;lt;JWT&amp;gt;" style="edgeLabel;html=1;align=center;verticalAlign=middle;resizable=0;points=[];" vertex="1" connectable="0" parent="f_p331UzXkgbAsGsOddH-13">
          <mxGeometry x="-0.0607" y="2" relative="1" as="geometry">
            <mxPoint x="-6" y="-21" as="offset" />
          </mxGeometry>
        </mxCell>
        <mxCell id="f_p331UzXkgbAsGsOddH-21" value="" style="html=1;points=[];perimeter=orthogonalPerimeter;outlineConnect=0;targetShapes=umlLifeline;portConstraint=eastwest;newEdgeStyle={&quot;edgeStyle&quot;:&quot;elbowEdgeStyle&quot;,&quot;elbow&quot;:&quot;vertical&quot;,&quot;curved&quot;:0,&quot;rounded&quot;:0};fillColor=#E6E6E6;" vertex="1" parent="1">
          <mxGeometry x="1720" y="610" width="10" height="70" as="geometry" />
        </mxCell>
        <mxCell id="f_p331UzXkgbAsGsOddH-23" value="" style="html=1;points=[];perimeter=orthogonalPerimeter;outlineConnect=0;targetShapes=umlLifeline;portConstraint=eastwest;newEdgeStyle={&quot;edgeStyle&quot;:&quot;elbowEdgeStyle&quot;,&quot;elbow&quot;:&quot;vertical&quot;,&quot;curved&quot;:0,&quot;rounded&quot;:0};fillColor=#E6E6E6;" vertex="1" parent="1">
          <mxGeometry x="1909.67" y="750" width="10" height="70" as="geometry" />
        </mxCell>
        <mxCell id="f_p331UzXkgbAsGsOddH-24" value="" style="endArrow=classic;html=1;rounded=0;" edge="1" parent="1" target="f_p331UzXkgbAsGsOddH-23">
          <mxGeometry width="50" height="50" relative="1" as="geometry">
            <mxPoint x="1730" y="750" as="sourcePoint" />
            <mxPoint x="2190" y="1060" as="targetPoint" />
            <Array as="points">
              <mxPoint x="1800" y="750" />
            </Array>
          </mxGeometry>
        </mxCell>
        <mxCell id="f_p331UzXkgbAsGsOddH-25" value="GET /files/collection&lt;br&gt;Authorization Bearer: &amp;lt;JWT&amp;gt;" style="edgeLabel;html=1;align=center;verticalAlign=bottom;resizable=0;points=[];" vertex="1" connectable="0" parent="f_p331UzXkgbAsGsOddH-24">
          <mxGeometry x="0.0867" y="-2" relative="1" as="geometry">
            <mxPoint x="-7" y="-6" as="offset" />
          </mxGeometry>
        </mxCell>
        <mxCell id="f_p331UzXkgbAsGsOddH-26" value="" style="endArrow=classic;html=1;rounded=0;dashed=1;" edge="1" parent="1" source="f_p331UzXkgbAsGsOddH-23" target="f_p331UzXkgbAsGsOddH-28">
          <mxGeometry width="50" height="50" relative="1" as="geometry">
            <mxPoint x="1800" y="990" as="sourcePoint" />
            <mxPoint x="1730" y="860" as="targetPoint" />
            <Array as="points">
              <mxPoint x="1810" y="820" />
            </Array>
          </mxGeometry>
        </mxCell>
        <mxCell id="f_p331UzXkgbAsGsOddH-27" value="HTTP 200&lt;br&gt;You have access.&amp;lt;3" style="edgeLabel;html=1;align=center;verticalAlign=middle;resizable=0;points=[];" vertex="1" connectable="0" parent="f_p331UzXkgbAsGsOddH-26">
          <mxGeometry x="-0.0607" y="2" relative="1" as="geometry">
            <mxPoint x="-6" y="-21" as="offset" />
          </mxGeometry>
        </mxCell>
        <mxCell id="f_p331UzXkgbAsGsOddH-28" value="" style="html=1;points=[];perimeter=orthogonalPerimeter;outlineConnect=0;targetShapes=umlLifeline;portConstraint=eastwest;newEdgeStyle={&quot;edgeStyle&quot;:&quot;elbowEdgeStyle&quot;,&quot;elbow&quot;:&quot;vertical&quot;,&quot;curved&quot;:0,&quot;rounded&quot;:0};fillColor=#E6E6E6;" vertex="1" parent="1">
          <mxGeometry x="1720" y="750" width="10" height="70" as="geometry" />
        </mxCell>
        <mxCell id="f_p331UzXkgbAsGsOddH-31" value="" style="endArrow=none;html=1;rounded=0;startArrow=none;opacity=50;dashed=1;" edge="1" parent="1" source="f_p331UzXkgbAsGsOddH-28" target="f_p331UzXkgbAsGsOddH-21">
          <mxGeometry width="50" height="50" relative="1" as="geometry">
            <mxPoint x="1724.5" y="730" as="sourcePoint" />
            <mxPoint x="1724.5" y="680" as="targetPoint" />
          </mxGeometry>
        </mxCell>
        <mxCell id="f_p331UzXkgbAsGsOddH-32" value="" style="endArrow=none;html=1;rounded=0;startArrow=none;opacity=50;dashed=1;exitX=0.5;exitY=0;exitDx=0;exitDy=0;" edge="1" parent="1" source="f_p331UzXkgbAsGsOddH-3">
          <mxGeometry width="50" height="50" relative="1" as="geometry">
            <mxPoint x="1724.8799999999999" y="931.05" as="sourcePoint" />
            <mxPoint x="1724.8799999999999" y="819.9999999999998" as="targetPoint" />
          </mxGeometry>
        </mxCell>
        <mxCell id="f_p331UzXkgbAsGsOddH-33" value="" style="rounded=1;whiteSpace=wrap;html=1;dashed=1;" vertex="1" parent="1">
          <mxGeometry x="1959.67" y="615" width="180" height="60" as="geometry" />
        </mxCell>
        <mxCell id="f_p331UzXkgbAsGsOddH-22" value="Check if username and password&lt;br&gt;are correct, if so issue token." style="edgeLabel;html=1;align=center;verticalAlign=bottom;resizable=0;points=[];labelBorderColor=none;textShadow=0;" vertex="1" connectable="0" parent="1">
          <mxGeometry x="2049.67" y="660" as="geometry" />
        </mxCell>
        <mxCell id="f_p331UzXkgbAsGsOddH-35" value="" style="rounded=1;whiteSpace=wrap;html=1;dashed=1;" vertex="1" parent="1">
          <mxGeometry x="1959.67" y="755" width="180" height="60" as="geometry" />
        </mxCell>
        <mxCell id="f_p331UzXkgbAsGsOddH-29" value="Check if token is valid,if so return&lt;div&gt;the specific resource to the user.&lt;/div&gt;" style="edgeLabel;html=1;align=center;verticalAlign=bottom;resizable=0;points=[];" vertex="1" connectable="0" parent="1">
          <mxGeometry x="2050.67" y="802" as="geometry" />
        </mxCell>
      </root>
    </mxGraphModel>
  </diagram>
</mxfile>
